<?xml version="1.0" encoding="utf-8"?>
<!-- Generator: Adobe Illustrator 22.0.0, SVG Export Plug-In . SVG Version: 6.00 Build 0)  -->
<svg version="1.1" id="Layer_1" xmlns="http://www.w3.org/2000/svg" xmlns:xlink="http://www.w3.org/1999/xlink" x="0px" y="0px"
	 viewBox="0 0 792 612" style="enable-background:new 0 0 792 612;" xml:space="preserve">
<style type="text/css">
	.st0{fill:#373373;}
	.st1{fill:#E94852;}
	.st2{fill:#8B4A97;}
	.st3{fill:#397CBF;}
	.st4{fill:#37A865;}
	.st5{fill:#F8AB1A;}
	.st6{font-family:'Helvetica-Bold';}
	.st7{font-size:14px;}
	.st8{stroke:#000000;stroke-width:1.5;stroke-miterlimit:10;}
	.st9{stroke:#000000;stroke-miterlimit:10;}
	.st10{stroke:#000000;stroke-width:2;stroke-miterlimit:10;}
	.st11{stroke:#000000;stroke-width:0.25;stroke-miterlimit:10;}
	.st12{fill:#FFFFFF;}
</style>
<path class="st0" d="M80.7,272.5c0-37.8,0-75.6,0-113.5c0-9.7,0.2-9.9,9.8-11.2c9.7-1.3,19.4-2.8,29.1-4.3c6.3-0.9,7.8,0.3,7.8,6.6
	c0,42,0,84,0,126c0,1-0.1,2,0,3c0.1,0.9-0.4,2.1,0.7,2.7c1.4,0.7,2.1-0.6,2.8-1.4c6.1-7.5,12.2-15,18.3-22.5
	c9.9-12.1,19.8-24.2,29.6-36.4c2.1-2.6,4.5-3.5,7.8-3.5c13.5,0.1,27,0,40.5,0c2.9,0,5.8-0.1,7.3,3.1c1.4,3-0.7,5-2.4,7.1
	c-18.8,22.3-37.5,44.6-56.5,66.7c-2.9,3.4-2.6,5.5-0.2,8.8c19.7,27.4,39.3,55,58.9,82.5c1.7,2.3,4.3,4.5,2.3,8
	c-1.9,3.3-5.1,2.5-8,2.6c-12.7,0-25.3-0.2-38,0.1c-4.4,0.1-7-1.5-9.4-5c-16.2-23.4-32.6-46.6-49-69.9c-0.9-1.3-1.6-3.7-3.3-3.3
	c-2.3,0.6-1.2,3.1-1.2,4.8c-0.1,22,0,44-0.1,66c0,6.1-1.3,7.3-7.3,7.4c-10.2,0-20.3,0-30.5,0c-8,0-9-0.9-9-8.8
	C80.7,349.5,80.7,311,80.7,272.5z"/>
<path class="st0" d="M556.4,315c0-29.3,0-58.6,0-88c0-7.5,1.2-8.7,8.9-8c10.6,1,21.2,2.3,31.8,3.3c4.4,0.4,6.3,2.5,6.3,7.1
	c-0.2,56.5-0.1,112.9-0.3,169.4c0,9.7-1.3,19.3-3.7,28.6c-6.6,25-25.4,40.6-51.2,42.3c-8.8,0.6-17.6,0.4-26.4-0.9
	c-5.2-0.8-6.8-2.9-6.1-8.2c1.2-8.9,2.5-17.8,3.7-26.7c0.5-3.8,2.2-5.7,6.2-5.1c3,0.4,6,0.9,8.9,0.8c11.6-0.4,18.4-6.3,20.7-17.8
	c1-4.9,1.2-9.9,1.2-14.9C556.4,369.6,556.4,342.3,556.4,315z"/>
<path class="st0" d="M410.1,313.8c0,27,0.1,54,0,81c-0.1,10.7-1,21.3-3.6,31.7c-6.4,25.7-25,41.4-51.4,43.3
	c-8.8,0.7-17.6,0.5-26.4-0.9c-5.3-0.8-6.9-2.8-6.2-8.2c1.2-8.9,2.7-17.8,3.8-26.7c0.5-3.9,2.2-5.7,6.2-5.2c3.1,0.4,6.3,0.9,9.4,0.7
	c11.6-0.6,18.4-7,20.4-18.7c1-5.8,1.2-11.6,1.2-17.4c0-53.7,0-107.3,0-161c0-7.4,0.3-7.8,7.5-8.9c10.5-1.6,21.1-3.1,31.6-4.5
	c6-0.8,7.5,0.7,7.5,6.8C410.1,255.2,410.1,284.5,410.1,313.8z"/>
<path class="st0" d="M699.8,324.1c0,21.5,0,43,0,64.5c0,7.3-1,8.2-8.4,8.2c-10.3,0-20.7,0-31,0c-5.8,0-7.1-1.3-7.1-6.9
	c0-42.3,0-84.6-0.1-126.9c0-4.4,1.8-6.4,5.9-6.9c11.4-1.5,22.7-3.1,34.1-4.7c4.7-0.6,6.6,1.2,6.6,6.8
	C699.8,280.2,699.8,302.1,699.8,324.1z"/>
<path class="st0" d="M313.4,324.5c0,21.6,0,43.3,0,64.9c0,6.2-1.1,7.3-7.2,7.4c-10.8,0-21.6,0-32.5,0c-5.6,0-6.7-1.2-6.7-6.8
	c0-42.3,0.1-84.6-0.1-126.9c0-5,2.1-6.7,6.7-7.2c10.7-1.3,21.4-2.8,32.1-4.3c5.9-0.8,7.6,0.5,7.6,6.4
	C313.4,280.2,313.4,302.3,313.4,324.5z"/>
<path class="st0" d="M506.4,324.1c0,21.8,0,43.6,0,65.4c0,6.3-0.9,7.3-7.2,7.3c-10.7,0-21.3,0-32,0c-6,0-7.2-1.1-7.2-6.9
	c0-42.3,0-84.6-0.1-126.9c0-4.7,2.1-6.5,6.4-7c11.1-1.4,22.1-3,33.1-4.5c5.2-0.7,6.9,0.7,6.9,6.1
	C506.4,279.8,506.4,301.9,506.4,324.1z"/>
<path class="st1" d="M386.7,129.9c15.9,0,28.9,12.9,29.1,28.8c0.2,15.9-13.3,29.2-29.3,29.1c-15.9-0.1-29-13.4-28.8-29.1
	C357.9,142.7,370.8,129.9,386.7,129.9z"/>
<path class="st2" d="M676.2,220.1c-16-0.1-28.9-13-28.8-28.9c0.1-16,13.5-29.1,29.5-28.9c16,0.3,28.6,13.3,28.5,29.3
	C705.3,207.6,692.4,220.2,676.2,220.1z"/>
<path class="st3" d="M482.7,220.1c-16.2-0.2-28.6-13.3-28.3-29.8c0.3-15.4,13.7-28.3,29.3-28c16.2,0.3,28.8,13.4,28.6,29.7
	C512,207.9,499,220.3,482.7,220.1z"/>
<path class="st4" d="M551.1,158.5c0.1-16,12.9-28.7,29-28.6c16,0.1,28.8,13,28.7,29c0,15.9-13,28.8-28.9,28.8
	C563.7,187.8,551,174.9,551.1,158.5z"/>
<path class="st5" d="M290,220.1c-16.1-0.1-28.8-12.8-28.7-28.9c0-16.1,12.8-28.7,28.9-28.7c16.4,0,29.1,12.8,29,29.1
	C319,207.5,306.1,220.2,290,220.1z"/>
<text transform="matrix(1 0 0 1 711.3328 261.6581)" class="st0 st6 st7">TM</text>
</svg>
