<?xml version="1.0" encoding="utf-8"?>
<!-- Generator: Adobe Illustrator 22.0.0, SVG Export Plug-In . SVG Version: 6.00 Build 0)  -->
<svg version="1.1" id="Layer_1" xmlns="http://www.w3.org/2000/svg" xmlns:xlink="http://www.w3.org/1999/xlink" x="0px" y="0px"
	 viewBox="0 0 393.3 205.6" style="enable-background:new 0 0 393.3 205.6;" xml:space="preserve">
<style type="text/css">
	.st0{fill:#FFFFFF;}
	.st1{fill:#E94852;}
	.st2{fill:#8B4A97;}
	.st3{fill:#397CBF;}
	.st4{fill:#37A865;}
	.st5{fill:#F8AB1A;}
	.st6{fill:#373373;}
	.st7{font-family:'Helvetica-Bold';}
	.st8{font-size:8.46px;}
</style>
<title>logo</title>
<path class="st0" d="M0,86.1V17.6c0-5.9,0.2-6,5.9-6.8s11.7-1.7,17.6-2.6c3.8-0.6,4.7,0.2,4.7,4c0,25.4,0,50.7,0,76.1
	c0,0.6,0,1.2,0,1.8s-0.2,1.3,0.4,1.6c0.9,0.4,1.2-0.4,1.7-0.9l11.1-13.6c6-7.3,12-14.6,17.9-22c1.1-1.5,2.9-2.2,4.7-2.1
	c8.2,0,16.3,0,24.5,0c1.7,0,3.5-0.1,4.4,1.8s-0.4,3-1.4,4.3C80,72.8,68.7,86.3,57.2,99.7c-1.8,2.1-1.6,3.3-0.1,5.3
	c11.9,16.6,23.8,33.2,35.6,49.9c1,1.4,2.6,2.7,1.4,4.8s-3.1,1.5-4.9,1.5c-7.6,0-15.3-0.1-22.9,0.1c-2.3,0.2-4.5-1-5.7-3
	C50.8,144.2,40.9,130.1,31,116c-0.6-0.8-0.9-2.2-2-2c-1.4,0.4-0.7,1.9-0.7,2.9c0,13.3,0,26.6,0,39.9c0,3.7-0.8,4.4-4.4,4.4
	c-6.1,0-12.3,0-18.4,0c-4.8,0-5.4-0.6-5.4-5.3L0,86.1z"/>
<path class="st0" d="M287.4,111.8V58.7c0-4.6,0.7-5.3,5.4-4.8c6.4,0.6,12.8,1.4,19.2,2c2.7,0.3,3.8,1.5,3.8,4.3
	c-0.1,34.1-0.1,68.2-0.2,102.4c0,5.8-0.8,11.7-2.2,17.3c-4,15.1-15.3,24.5-30.9,25.6c-5.3,0.4-10.7,0.2-16-0.6
	c-3.2-0.5-4.1-1.8-3.7-5c0.8-5.4,1.5-10.8,2.2-16.1c0.3-2.3,1.3-3.4,3.8-3.1c1.8,0.3,3.6,0.5,5.4,0.5c7-0.2,11.1-3.8,12.5-10.8
	c0.5-3,0.8-6,0.7-9C287.4,144.8,287.4,128.3,287.4,111.8z"/>
<path class="st0" d="M199,111.1c0,16.3,0.1,32.6,0,48.9c0,6.4-0.7,12.9-2.2,19.1c-3.9,15.5-15.1,25-31.1,26.2
	c-5.3,0.4-10.7,0.2-15.9-0.6c-3.2-0.5-4.2-1.7-3.7-4.9c0.8-5.4,1.6-10.7,2.3-16.1c0.3-2.4,1.3-3.4,3.8-3.1c1.9,0.3,3.8,0.5,5.7,0.4
	c7-0.4,11.1-4.2,12.3-11.3c0.5-3.5,0.8-7,0.7-10.5V61.9c0-4.4,0.2-4.7,4.6-5.4c6.4-1,12.7-1.9,19.1-2.7c3.6-0.5,4.6,0.4,4.6,4.1
	C199.1,75.7,199,93.4,199,111.1z"/>
<path class="st0" d="M374.1,117.3v38.9c0,4.4-0.6,5-5.1,5c-6.2,0-12.5,0-18.7,0c-3.5,0-4.3-0.8-4.3-4.2c0-25.6,0-51.1,0-76.7
	c0-2.7,1.1-3.9,3.6-4.2c6.9-0.9,13.7-1.9,20.6-2.8c2.9-0.4,4,0.7,4,4.1C374.1,90.8,374.1,104.1,374.1,117.3z"/>
<path class="st0" d="M140.6,117.6c0,13.1,0,26.2,0,39.2c0,3.8-0.7,4.4-4.3,4.4c-6.5,0-13.1,0-19.6,0c-3.4,0-4-0.7-4-4.1
	c0-25.6,0-51.1-0.1-76.6c0-3,1.3-4,4-4.4c6.5-0.8,13-1.7,19.4-2.6c3.5-0.5,4.6,0.3,4.6,3.9C140.6,90.8,140.6,104.1,140.6,117.6z"/>
<path class="st0" d="M257.2,117.3v39.5c0,3.8-0.6,4.4-4.3,4.4c-6.4,0-12.9,0-19.3,0c-3.6,0-4.4-0.7-4.4-4.1c0-25.6,0-51.1,0-76.7
	c0-2.9,1.2-3.9,3.9-4.3c6.7-0.8,13.3-1.8,20-2.7c3.2-0.4,4.2,0.4,4.2,3.7C257.2,90.5,257.3,103.9,257.2,117.3z"/>
<path class="st1" d="M184.9,0c9.7,0,17.4,7.9,17.4,17.6c0,9.7-7.9,17.4-17.6,17.4c-9.7,0-17.4-7.9-17.4-17.6c0,0,0,0,0,0
	C167.5,7.8,175.3,0,184.9,0z"/>
<path class="st2" d="M359.8,54.5c-9.6,0-17.4-7.8-17.4-17.5c0,0,0,0,0,0c-0.4-9.7,7.1-17.8,16.8-18.2c9.7-0.4,17.8,7.1,18.2,16.8
	c0,0.6,0,1.1,0,1.7c0,9.5-7.8,17.2-17.4,17.2C360,54.5,359.9,54.5,359.8,54.5z"/>
<path class="st3" d="M242.9,54.5c-9.6-0.1-17.2-7.9-17.1-17.5c0-0.2,0-0.3,0-0.5c0.3-9.7,8.3-17.3,18-17c9.7,0.3,17.3,8.3,17,18
	c-0.1,9.5-8,17.2-17.5,17C243.1,54.5,243,54.5,242.9,54.5z"/>
<path class="st4" d="M284.2,17.3c0.3-9.6,8.3-17.2,18-16.9c9.3,0.3,16.8,7.9,16.9,17.2c0.1,9.6-7.6,17.6-17.2,17.7
	c-9.6,0.1-17.6-7.6-17.7-17.2C284.2,17.8,284.2,17.5,284.2,17.3L284.2,17.3z"/>
<path class="st5" d="M126.4,54.5c-9.6-0.1-17.3-8-17.2-17.6c0.1-9.6,8-17.3,17.6-17.2c9.6,0.1,17.3,8,17.2,17.6
	c0,9.5-7.8,17.3-17.3,17.2C126.6,54.5,126.5,54.5,126.4,54.5z"/>
<text transform="matrix(1 0 0 1 381.05 79.58)" class="st6 st7 st8">TM</text>
</svg>
