<?xml version="1.0" encoding="utf-8"?>
<!-- Generator: Adobe Illustrator 22.0.0, SVG Export Plug-In . SVG Version: 6.00 Build 0)  -->
<svg version="1.1" id="Layer_1" xmlns="http://www.w3.org/2000/svg" xmlns:xlink="http://www.w3.org/1999/xlink" x="0px" y="0px"
	 viewBox="0 0 393.3 205.6" style="enable-background:new 0 0 393.3 205.6;" xml:space="preserve">
<style type="text/css">
	.st0{fill:#FFFFFF;}
	.st1{fill:#37A865;}
	.st2{fill:#E94852;}
	.st3{fill:#8B4A97;}
	.st4{fill:#397CBF;}
	.st5{display:none;}
	.st6{display:inline;fill:#E94852;}
	.st7{display:inline;fill:#8B4A97;}
	.st8{display:inline;fill:#397CBF;}
	.st9{display:inline;fill:#37A865;}
	.st10{display:inline;fill:#F8AB1A;}
	.st11{fill:#373373;}
	.st12{font-family:'Helvetica-Bold';}
	.st13{font-size:8.46px;}
	.st14{fill:#F8AB1A;}
</style>
<title>logo</title>
<path class="st0" d="M0,86.1V17.6c0-5.9,0.2-6,5.9-6.8s11.7-1.7,17.6-2.6c3.8-0.6,4.7,0.2,4.7,4c0,25.4,0,50.7,0,76.1
	c0,0.6,0,1.2,0,1.8s-0.2,1.3,0.4,1.6c0.9,0.4,1.2-0.4,1.7-0.9l11.1-13.6c6-7.3,12-14.6,17.9-22c1.1-1.5,2.9-2.2,4.7-2.1
	c8.2,0,16.3,0,24.5,0c1.7,0,3.5-0.1,4.4,1.8s-0.4,3-1.4,4.3C80,72.8,68.7,86.3,57.2,99.7c-1.8,2.1-1.6,3.3-0.1,5.3
	c11.9,16.6,23.8,33.2,35.6,49.9c1,1.4,2.6,2.7,1.4,4.8s-3.1,1.5-4.9,1.5c-7.6,0-15.3-0.1-22.9,0.1c-2.3,0.2-4.5-1-5.7-3
	C50.8,144.2,40.9,130.1,31,116c-0.6-0.8-0.9-2.2-2-2c-1.4,0.4-0.7,1.9-0.7,2.9c0,13.3,0,26.6,0,39.9c0,3.7-0.8,4.4-4.4,4.4
	c-6.1,0-12.3,0-18.4,0c-4.8,0-5.4-0.6-5.4-5.3L0,86.1z"/>
<path class="st1" d="M315.8,9.1c0,16.6-0.1,33.2-0.1,49.8c-0.3-2-1.4-2.9-3.7-3.1c-6.4-0.6-12.8-1.4-19.2-2
	c-4.7-0.5-5.4,0.2-5.4,4.8V7.1c0-6.2,0.7-7.2,5.4-6.5c6.4,0.8,12.8,1.9,19.2,2.7C314.7,3.7,315.8,5.3,315.8,9.1z"/>
<path class="st2" d="M199.2,6.1c-0.1,16.6-0.1,33.2-0.2,49.7c-0.4-1.9-1.6-2.4-4.4-2c-6.4,0.8-12.7,1.7-19.1,2.7
	c-4.4,0.7-4.6,1-4.6,5.4V11.5c0-5.9,0.2-6.3,4.6-7.3c6.4-1.3,12.7-2.6,19.1-3.6C198.2-0.1,199.2,1.1,199.2,6.1z"/>
<path class="st3" d="M374.2,25.6c-0.1,17.3-0.1,34.5-0.1,51.6c0-3.4-1.1-4.5-4-4.1c-6.9,0.9-13.7,1.9-20.6,2.8
	c-2.1,0.2-3.2,1.1-3.5,3V30.3c0-4.4,1.1-6.3,3.6-6.8c6.9-1.5,13.7-3.1,20.6-4.5C373.1,18.4,374.2,20.1,374.2,25.6z"/>
<path class="st4" d="M257.2,76.9c0-3.3-1-4.1-4.2-3.7c-6.7,0.9-13.3,1.9-20,2.7c-2.3,0.3-3.5,1.1-3.8,3v-48c0-4.7,1.2-6.3,3.9-6.9
	c6.7-1.3,13.3-2.9,20-4.4c3.2-0.6,4.2,0.6,4.2,6"/>
<g class="st5">
	<path class="st6" d="M184.9,0c9.7,0,17.4,7.9,17.4,17.6S194.4,35,184.7,35s-17.4-7.9-17.4-17.6l0,0C167.5,7.8,175.3,0,184.9,0z"/>
	<path class="st7" d="M359.8,54.5c-9.6,0-17.4-7.8-17.4-17.5l0,0c-0.4-9.7,7.1-17.8,16.8-18.2c9.7-0.4,17.8,7.1,18.2,16.8
		c0,0.6,0,1.1,0,1.7c0,9.5-7.8,17.2-17.4,17.2C360,54.5,359.9,54.5,359.8,54.5z"/>
	<path class="st8" d="M242.9,54.5c-9.6-0.1-17.2-7.9-17.1-17.5c0-0.2,0-0.3,0-0.5c0.3-9.7,8.3-17.3,18-17s17.3,8.3,17,18
		c-0.1,9.5-8,17.2-17.5,17C243.1,54.5,243,54.5,242.9,54.5z"/>
	<path class="st9" d="M284.2,17.3c0.3-9.6,8.3-17.2,18-16.9c9.3,0.3,16.8,7.9,16.9,17.2c0.1,9.6-7.6,17.6-17.2,17.7
		c-9.6,0.1-17.6-7.6-17.7-17.2C284.2,17.8,284.2,17.5,284.2,17.3L284.2,17.3z"/>
	<path class="st10" d="M126.4,54.5c-9.6-0.1-17.3-8-17.2-17.6c0.1-9.6,8-17.3,17.6-17.2c9.6,0.1,17.3,8,17.2,17.6
		c0,9.5-7.8,17.3-17.3,17.2C126.6,54.5,126.5,54.5,126.4,54.5z"/>
</g>
<text transform="matrix(1 0 0 1 381.05 79.58)" class="st11 st12 st13">TM</text>
<path class="st14" d="M140.6,36.8v40.6c0-3.6-1.1-4.4-4.6-3.9c-6.4,0.9-12.9,1.8-19.4,2.6c-2.3,0.3-3.6,1.1-3.9,3.3
	c0-12.7,0-25.3-0.1-38c0-4.5,1.3-5.9,4-6.5c6.5-1.2,13-2.5,19.4-3.9C139.5,30.3,140.6,31.4,140.6,36.8z"/>
<path class="st0" d="M140.5,117.7c0,13.1,0,26.2,0,39.2c0,3.8-0.7,4.4-4.3,4.4c-6.5,0-13.1,0-19.6,0c-3.4,0-4-0.7-4-4.1
	c0-25.6,0-51.1-0.1-76.6c0-3,1.3-4,4-4.4c6.5-0.8,13-1.7,19.4-2.6c3.5-0.5,4.6,0.3,4.6,3.9C140.5,90.9,140.5,104.2,140.5,117.7z"/>
<path class="st0" d="M315.6,59c0,29.5-0.1,59-0.1,88.5c0,7.8-0.8,15.8-2.2,23.4c-3.8,19.5-14.3,32-28.8,34.3
	c-0.7,0.1-1.4,0.2-2.1,0.2c-4.2,0.3-8.5,0.3-12.8-0.2c-1.1-0.1-2.1-0.2-3.2-0.4c-3-0.5-4-1.6-3.8-4.4c0-0.2,0-0.4,0.1-0.6
	c0.8-5.4,1.5-10.8,2.2-16.1c0.3-2.3,1.3-3.4,3.8-3.1c1.8,0.3,3.6,0.5,5.4,0.5c7-0.2,11.1-3.8,12.5-10.8c0.5-3,0.8-6,0.7-9V58.7
	c0-4.6,0.7-5.3,5.4-4.8c6.4,0.6,12.8,1.4,19.2,2C314.2,56.1,315.3,57,315.6,59z"/>
<path class="st0" d="M198.9,111.2c0,7.3,0,14.6,0,21.9v0.8c0,3.4,0,6.8,0,10.2c0,8.7-0.7,17.4-2.2,25.8
	c-3.9,20.9-15.1,33.8-31.1,35.4c-1.8,0.2-3.5,0.3-5.3,0.3c-3.6,0-7.1-0.3-10.6-0.8c-3-0.5-4-1.5-3.8-4.2c0-0.2,0-0.5,0.1-0.7
	c0.8-5.4,1.6-10.7,2.3-16.1c0.3-2.4,1.3-3.4,3.8-3.1c1.9,0.3,3.8,0.5,5.7,0.4c7-0.4,11.1-4.2,12.3-11.3c0.5-3.5,0.8-7,0.7-10.5V62
	c0-4.4,0.2-4.7,4.6-5.4c6.4-1,12.7-1.9,19.1-2.7c2.8-0.4,4,0.1,4.4,2c0.1,0.6,0.2,1.2,0.2,2.1c-0.1,13.3-0.2,26.6-0.2,39.9
	c0,0.7,0,1.5,0,2.2C198.9,103.8,198.9,107.5,198.9,111.2z"/>
<path class="st0" d="M373.9,117.2v38.9c0,4.4-0.6,5-5.1,5c-6.2,0-12.5,0-18.7,0c-3.5,0-4.3-0.8-4.3-4.2c0-25.6,0-51.1,0-76.7
	c0-2.7,1.1-3.9,3.6-4.2c6.9-0.9,13.7-1.9,20.6-2.8c2.9-0.4,4,0.7,4,4.1C373.9,90.7,373.9,104,373.9,117.2z"/>
<path class="st0" d="M257,117.2v39.5c0,3.8-0.6,4.4-4.3,4.4c-6.4,0-12.9,0-19.3,0c-3.6,0-4.4-0.7-4.4-4.1c0-25.6,0-51.1,0-76.7
	c0-2.9,1.2-3.9,3.9-4.3c6.7-0.8,13.3-1.8,20-2.7c3.2-0.4,4.2,0.4,4.2,3.7C257,90.4,257.1,103.8,257,117.2z"/>
</svg>
